<?xml version="1.0" encoding="utf-8"?>
<!-- Generator: Adobe Illustrator 27.7.0, SVG Export Plug-In . SVG Version: 6.00 Build 0)  -->
<svg version="1.1" id="Layer_1" xmlns="http://www.w3.org/2000/svg" xmlns:xlink="http://www.w3.org/1999/xlink" x="0px" y="0px"
	 viewBox="0 0 269 129.3" style="enable-background:new 0 0 269 129.3;" xml:space="preserve">
<style type="text/css">
	.st0{clip-path:url(#SVGID_00000125597217265751397890000003088978551626692793_);}
	.st1{fill:#FFFFFF;}
	.st2{clip-path:url(#SVGID_00000183962645380206423630000014981685690607807923_);}
</style>
<g>
	<defs>
		<polygon id="SVGID_00000121281574385487441150000004042387777062891158_" points="154,13.9 153.9,14 153.8,14.1 153.8,114.9 
			153.9,114.9 257.8,115 257.8,14 257.7,13.9 		"/>
	</defs>
	<clipPath id="SVGID_00000037677818616489896930000010632550348154221696_">
		<use xlink:href="#SVGID_00000121281574385487441150000004042387777062891158_"  style="overflow:visible;"/>
	</clipPath>
	<g style="clip-path:url(#SVGID_00000037677818616489896930000010632550348154221696_);">
		<defs>
			<rect id="SVGID_00000119820580809476530860000014099291629886355369_" x="153.7" y="13.9" width="104.4" height="101.3"/>
		</defs>
		<clipPath id="SVGID_00000113348413287143959370000009226874679767647362_">
			<use xlink:href="#SVGID_00000119820580809476530860000014099291629886355369_"  style="overflow:visible;"/>
		</clipPath>
		<g style="clip-path:url(#SVGID_00000113348413287143959370000009226874679767647362_);">
			
				<image style="overflow:visible;" width="441" height="441" xlink:href="EBE29A1944D2EDD9.jpg"  transform="matrix(0.2366 0 0 0.2297 153.6563 13.9497)">
			</image>
		</g>
	</g>
</g>
<rect x="107.8" y="49.9" class="st1" width="5.2" height="28.6"/>
<path class="st1" d="M109.5,82.6v4.8c1.7,0.3,2.9,0.4,3.9,0.4c7.1,0,10.5-3.1,10.5-9.5V61.1h-5.3v17.1c0,3.2-1.9,5.2-4.8,5.2
	c-1.9,0-3.2-0.5-3.7-0.6L109.5,82.6z"/>
<rect x="127.3" y="53" class="st1" width="5.1" height="25.5"/>
<path class="st1" d="M52.4,63.4c2.9,0,4.2,1.8,4.2,5.4v5.3h-2.9c-4.2,0-6.1-1.6-6.1-5.4C47.6,65.5,49.5,63.4,52.4,63.4 M90.1,68.9
	c0-3.6,1.4-5.4,4.2-5.4c2.9,0,4.8,2.1,4.8,5.3c0,3.8-1.8,5.4-6,5.4h-3V68.9z M45.6,76.6c2.5,1.5,4.6,1.9,9.3,1.9h1.8
	c-0.1,3.2-2,4.9-5.6,4.9c-1.7,0-3.6-0.2-5.8-0.9l-0.3-0.2v4.8c2.6,0.5,4.5,0.7,6.4,0.7c6.9,0,10.5-3.1,10.6-9.3h29.8
	c8.2,0,12.6-2.1,12.6-9.5c0-4.9-3.2-9.7-10.5-9.7c-5.8,0-8.9,3.1-8.9,9.1v5.9h-4.7c0.7-1.2,1.1-2.8,1.1-4.6c0-4.3-2.7-9.2-10.4-9.2
	h-0.7l9.9-10.6h-6.1c-3.7,4-9.3,9.9-10,10.6v4.3h7.2c2.3,0,4.9,0.8,4.9,4.6c0,3.6-1.7,4.9-6.1,4.9h-8.2v-5.9c0-5.9-3.1-9.1-9-9.1
	c-7.3,0-10.5,4.9-10.5,9.7C42.3,72.5,43.5,75.2,45.6,76.6"/>
<path class="st1" d="M133.6,48.5h-2.8c-1.2,0-1.5-0.3-1.5-1.1c0-1,0.4-1.2,1.6-1.2c0.8,0,1.4,0.2,2.3,0.8v-2.4l-0.4-0.2
	c-0.7-0.2-1.2-0.4-1.9-0.4c-2.7,0-4.1,1.2-4.1,3.5c0,0.5,0.1,0.8,0.3,1h-1v2.2h7.6V48.5z"/>
<path class="st1" d="M126.1,110.8c-3,0-5.5-2.4-5.5-5.3c0-2.9,2.5-5.2,5.5-5.2c2.9,0,5.4,2.4,5.4,5.2
	C131.5,108.4,129,110.8,126.1,110.8 M126.1,95.8c-5.6,0-10.1,4.4-10.1,9.7c0,5.4,4.5,9.8,10.1,9.8c5.5,0,9.9-4.4,9.9-9.8
	C136,100.1,131.6,95.8,126.1,95.8"/>
<path class="st1" d="M89.2,95.6c-2.2,0-4.4,0.5-6.3,1.1c-1.5-0.9-2.8-1.1-4.9-1.1c-2.6,0-5.1,0.3-8,1.2L69.6,97v17.9h5v-14.7
	c1.1-0.4,1.9-0.5,2.8-0.5c2.5,0,3.2,0.8,3.2,3.3v11.8h5v-12.2c0-1,0-1.8-0.2-2.5c1-0.3,1.8-0.5,2.7-0.5c2.4,0,3.4,1,3.4,3.3v11.8h5
	v-12.2c0-2.5-0.4-3.9-1.6-5.1C93.9,96.3,91.8,95.6,89.2,95.6"/>
<path class="st1" d="M109.4,111c-3.3,0-5.3-2-5.3-5.5c0-3.6,2-5.6,5.3-5.6c0.8,0,1.4,0,1.9,0.2c0,0,1.1,0.3,2,1l2.2-3.5
	c-1.2-1-2.5-1.3-3-1.4c-1.3-0.4-3.1-0.5-3.1-0.5c-6.1,0-10.1,4.1-10.1,10.1c0,5.8,3.8,9.6,9.8,9.6c0,0,3.9,0.1,6.7-2.3l-2.6-3.1
	C111.6,110.7,110.7,111,109.4,111"/>
<path class="st1" d="M43.9,95.8c-7.2,0-10.5,3-10.5,9.5v9.6h5.2v-9.2v-0.4c0-3.3,1.9-5.3,4.9-5.3c1.2,0,2.2,0.2,2.9,0.4l1.2-4.3
	C45.5,95.8,43.9,95.8,43.9,95.8"/>
<path class="st1" d="M61.7,105.3c0-3.6-1.5-5.4-4.4-5.4c-2.9,0-4.9,2.1-4.9,5.3c0,3.9,2,5.6,6.2,5.6h3.1V105.3z M66.7,104.7v10.2
	h-6.9c-4.7,0-6.8-0.4-9.3-1.9c-2.2-1.4-3.3-4.2-3.3-7.6c0-4.9,3.3-9.7,10.5-9.7C63.5,95.7,66.7,98.8,66.7,104.7"/>
<path class="st1" d="M25.4,105.3c0-3.7-1.4-5.4-4.3-5.4c-3,0-4.9,2.1-4.9,5.3c0,3.9,1.9,5.6,6.2,5.6h3V105.3z M30.6,104.7v10.2h-6.8
	c-4.8,0-6.9-0.4-9.3-1.9c-2.2-1.4-3.3-4.2-3.3-7.6c0-4.9,3.2-9.7,10.5-9.7C27.5,95.7,30.6,98.8,30.6,104.7"/>
<path class="st1" d="M213.4,56.4c1.3,0.6,2.1,1.8,2,2.8c-0.2,1-1.4,1.3-2.7,0.8c-1.3-0.7-2.1-1.9-1.9-2.9
	C211,56.1,212.2,55.8,213.4,56.4"/>
<path class="st1" d="M217,36.9c1.1,0.6,1.8,1.4,1.7,2c-0.1,0.7-1,0.8-2,0.2c-1.1-0.5-1.8-1.4-1.7-2C215.1,36.5,216,36.4,217,36.9"/>
<path class="st1" d="M217.4,35c0.8,0.4,1.5,1.1,1.4,1.6c-0.1,0.5-0.8,0.6-1.7,0.2c-0.9-0.5-1.5-1.2-1.4-1.7
	C215.8,34.6,216.5,34.5,217.4,35"/>
<path class="st1" d="M217.7,33.1c0.8,0.4,1.4,1,1.3,1.5c-0.1,0.4-0.7,0.5-1.6,0c-0.8-0.4-1.3-1-1.3-1.5
	C216.2,32.7,216.9,32.7,217.7,33.1"/>
<path class="st1" d="M218,31.2c0.8,0.4,1.3,1,1.2,1.4c0,0.4-0.7,0.4-1.4,0c-0.8-0.4-1.3-1-1.2-1.4C216.7,30.8,217.3,30.8,218,31.2"
	/>
<path class="st1" d="M218.3,29.5c0.7,0.4,1.2,1,1.1,1.2c0,0.4-0.6,0.4-1.3,0c-0.7-0.3-1.2-0.9-1.1-1.2
	C217.1,29.1,217.6,29.1,218.3,29.5"/>
<path class="st1" d="M218.5,28c0.6,0.3,1.1,0.8,1,1.1c0,0.3-0.6,0.3-1.2,0c-0.6-0.4-1.1-0.9-1-1.2C217.4,27.6,217.9,27.6,218.5,28"
	/>
<path class="st1" d="M218.7,26.4c0.6,0.3,1,0.7,1,1.1c-0.1,0.3-0.5,0.3-1.1-0.1c-0.6-0.3-1-0.7-1-1.1
	C217.8,26.1,218.2,26.1,218.7,26.4"/>
<path class="st1" d="M219,24.9c0.5,0.3,0.8,0.6,0.8,0.9c0,0.3-0.4,0.2-1,0c-0.5-0.3-0.8-0.7-0.8-1C218.2,24.5,218.5,24.6,219,24.9"
	/>
<path class="st1" d="M219.2,23.5c0.5,0.3,0.8,0.6,0.8,0.8c-0.1,0.3-0.4,0.2-0.9,0c-0.5-0.3-0.8-0.6-0.8-0.9
	C218.5,23.2,218.8,23.2,219.2,23.5"/>
<path class="st1" d="M219.5,22c0.3,0.2,0.6,0.5,0.6,0.7c0,0.3-0.3,0.2-0.7-0.1c-0.4-0.2-0.7-0.5-0.7-0.7
	C218.7,21.8,219.1,21.9,219.5,22"/>
<path class="st1" d="M219.7,20.7c0.3,0.2,0.6,0.4,0.6,0.6c-0.1,0.2-0.3,0.2-0.7,0c-0.4-0.2-0.6-0.5-0.6-0.7
	C219,20.4,219.3,20.5,219.7,20.7"/>
<path class="st1" d="M212.1,63.1c-1.1-0.5-1.8-1.6-1.6-2.5c0.2-0.9,1.2-1,2.2-0.6c1.1,0.5,1.8,1.5,1.6,2.4
	C214,63.3,213.1,63.6,212.1,63.1"/>
<path class="st1" d="M211.3,67.2c-1.1-0.5-1.7-1.5-1.6-2.4c0.2-0.9,1.2-1.2,2.2-0.8c1,0.5,1.7,1.5,1.6,2.4
	C213.2,67.4,212.3,67.7,211.3,67.2"/>
<path class="st1" d="M210.4,71.6c-1-0.5-1.7-1.6-1.5-2.5c0.2-0.9,1.1-1.2,2.1-0.8c1,0.5,1.7,1.5,1.5,2.4
	C212.3,71.7,211.4,72,210.4,71.6"/>
<path class="st1" d="M209.4,76.3c-1-0.5-1.6-1.5-1.4-2.4c0.2-1,1.1-1.3,2.1-0.9c1,0.5,1.6,1.4,1.4,2.4
	C211.3,76.4,210.4,76.8,209.4,76.3"/>
<path class="st1" d="M208.4,81.1c-0.9-0.4-1.4-1.3-1.2-2.2c0.2-0.9,1-1.1,1.8-0.8c0.9,0.4,1.4,1.2,1.3,2.1
	C210.1,81.1,209.3,81.5,208.4,81.1"/>
<path class="st1" d="M207.3,86.8c-0.9-0.4-1.4-1.3-1.2-2.2c0.2-0.9,1-1.2,1.8-0.9c0.9,0.4,1.4,1.3,1.2,2.1
	C208.8,86.7,208,87.2,207.3,86.8"/>
<path class="st1" d="M205.9,93c-0.7-0.3-1.2-1.1-1-2c0.2-0.8,0.9-1.1,1.7-0.9c0.7,0.3,1.1,1.1,1,1.9C207.4,92.9,206.7,93.3,205.9,93
	"/>
<path class="st1" d="M204.6,99.2c-0.7-0.3-1-1.1-0.9-1.7c0.2-0.8,0.8-1.1,1.5-0.9c0.6,0.2,0.9,1,0.8,1.7
	C205.8,99,205.2,99.4,204.6,99.2"/>
<path class="st1" d="M217.8,58.7c0.9,0.5,1.6,1.5,1.5,2.3c-0.1,0.9-1,1-2,0.6c-1-0.5-1.7-1.4-1.6-2.3
	C215.9,58.5,216.8,58.2,217.8,58.7"/>
<path class="st1" d="M222.1,60.5c1.2,0.6,2,1.8,1.9,2.9c-0.1,1-1.1,1.3-2.4,0.8c-1.2-0.7-2.1-1.9-2-3
	C219.8,60.2,220.8,59.8,222.1,60.5"/>
<path class="st1" d="M251.9,58.9c-0.5-0.4-0.9-0.3-0.8,0.2c0,0.4,0.5,1,1,1.3c0.5,0.3,0.8,0.2,0.8-0.3
	C252.8,59.8,252.4,59.2,251.9,58.9"/>
<path class="st1" d="M248.4,56.6c-0.6-0.4-1.1-0.2-1,0.3c0,0.6,0.6,1.3,1.3,1.7c0.6,0.4,1.1,0.3,1-0.3
	C249.6,57.7,249.1,56.9,248.4,56.6"/>
<path class="st1" d="M238.7,88c-0.8-0.5-1.5-0.1-1.5,0.9c0,1,0.7,2.1,1.5,2.7c0.9,0.5,1.5,0.1,1.5-0.9
	C240.2,89.7,239.6,88.5,238.7,88"/>
<path class="st1" d="M234.6,80.1c-1-0.6-1.7-0.2-1.8,0.8c0,1,0.7,2.3,1.7,2.9c1,0.6,1.8,0.2,1.8-0.9
	C236.2,81.8,235.5,80.6,234.6,80.1"/>
<path class="st1" d="M230.2,73.2c-1-0.5-1.8-0.2-1.9,0.8c0,1,0.7,2.1,1.7,2.7c1,0.5,1.8,0.2,1.9-0.9
	C231.9,74.9,231.2,73.7,230.2,73.2"/>
<path class="st1" d="M227.6,44.9c-0.9-0.4-1.6-0.3-1.7,0.3c0,0.6,0.6,1.4,1.5,1.9c0.9,0.4,1.6,0.3,1.7-0.3
	C229.1,46.2,228.4,45.4,227.6,44.9"/>
<path class="st1" d="M245.4,57.5c-0.7-0.4-1.2-0.3-1.2,0.3c0.1,0.6,0.7,1.3,1.4,1.7c0.7,0.4,1.1,0.3,1.1-0.3
	C246.5,58.6,246,57.9,245.4,57.5"/>
<path class="st1" d="M241.8,55.4c-0.7-0.4-1.3-0.3-1.2,0.3c0,0.6,0.6,1.4,1.3,1.8c0.8,0.4,1.3,0.3,1.3-0.3
	C243.1,56.6,242.5,55.8,241.8,55.4"/>
<path class="st1" d="M234.8,54.3c-0.9-0.5-1.5-0.3-1.6,0.4c0,0.7,0.7,1.5,1.6,2c0.9,0.5,1.5,0.3,1.5-0.4
	C236.3,55.6,235.6,54.8,234.8,54.3"/>
<path class="st1" d="M238.4,53.3c-0.9-0.4-1.5-0.3-1.5,0.4c0.1,0.6,0.7,1.4,1.6,1.9c0.8,0.5,1.4,0.3,1.4-0.4
	C239.8,54.7,239.2,53.8,238.4,53.3"/>
<path class="st1" d="M234.7,51.3c-0.9-0.5-1.6-0.4-1.6,0.3c0,0.7,0.7,1.6,1.6,2.1c1,0.5,1.7,0.4,1.7-0.4
	C236.2,52.7,235.5,51.8,234.7,51.3"/>
<path class="st1" d="M231.1,52.2c-1-0.5-1.7-0.4-1.8,0.4c0,0.7,0.7,1.6,1.7,2.2c1,0.5,1.7,0.3,1.8-0.5
	C232.7,53.6,232,52.7,231.1,52.2"/>
<path class="st1" d="M226.1,66.6c-1-0.5-1.9-0.2-2,0.7c-0.1,1,0.7,2,1.7,2.6c1,0.5,1.9,0.2,1.9-0.8
	C227.8,68.2,227.1,67.2,226.1,66.6"/>
<path class="st1" d="M226.4,62.8c-1.1-0.5-2-0.2-2.1,0.7c-0.1,1,0.7,2.1,1.8,2.7c1.1,0.6,2,0.3,2.1-0.7
	C228.2,64.5,227.4,63.3,226.4,62.8"/>
<path class="st1" d="M226.6,59.2c-1.1-0.6-2.1-0.3-2.2,0.7c-0.1,1,0.8,2.2,2,2.8c1.2,0.6,2.1,0.3,2.2-0.7
	C228.6,61,227.8,59.8,226.6,59.2"/>
<path class="st1" d="M226.9,55.9c-1.2-0.6-2.1-0.4-2.2,0.6c-0.1,0.9,0.8,2,1.9,2.7c1.2,0.6,2.1,0.3,2.2-0.7
	C228.8,57.6,228,56.5,226.9,55.9"/>
<path class="st1" d="M227,52.9c-1-0.5-1.8-0.3-1.9,0.5c0,0.8,0.7,1.7,1.7,2.3c1.1,0.5,1.9,0.3,1.9-0.5C228.8,54.5,228,53.5,227,52.9
	"/>
<path class="st1" d="M227.3,50c-1.1-0.5-2-0.4-2.1,0.5c0,0.8,0.8,1.8,1.9,2.4c1.1,0.6,2,0.4,2-0.5C229.1,51.6,228.3,50.6,227.3,50"
	/>
<path class="st1" d="M227.4,47.3c-1-0.5-1.9-0.4-2,0.4c0,0.8,0.8,1.7,1.9,2.3c1,0.5,1.9,0.4,1.9-0.4
	C229.2,48.8,228.5,47.9,227.4,47.3"/>
<path class="st1" d="M220.7,39.1c-0.7-0.4-1.4-0.3-1.4,0.1c-0.1,0.5,0.4,1.1,1.2,1.5c0.7,0.4,1.4,0.3,1.4-0.2
	C222,40.2,221.4,39.5,220.7,39.1"/>
<path class="st1" d="M220.9,37c-0.7-0.3-1.3-0.3-1.4,0.1c0,0.4,0.5,1,1.2,1.3c0.6,0.4,1.2,0.3,1.3-0.1C222,38,221.5,37.4,220.9,37"
	/>
<path class="st1" d="M221,35c-0.6-0.3-1.1-0.3-1.2,0.1c0,0.3,0.4,0.9,1,1.1c0.6,0.3,1.1,0.3,1.1-0.1C222,35.9,221.5,35.3,221,35"/>
<path class="st1" d="M221,33.1c-0.5-0.3-0.9-0.3-1,0.1c0,0.3,0.4,0.7,0.9,1c0.6,0.3,1,0.3,1,0C222,33.8,221.6,33.4,221,33.1"/>
<path class="st1" d="M221.2,31.4c-0.5-0.3-0.9-0.4-1,0c0,0.3,0.3,0.7,0.8,0.9c0.5,0.3,0.9,0.3,1,0C222,32,221.6,31.6,221.2,31.4"/>
<path class="st1" d="M221.2,29.6c-0.4-0.3-0.7-0.3-0.8,0c0,0.2,0.3,0.6,0.7,0.8c0.5,0.2,0.8,0.3,0.9,0
	C222,30.1,221.7,29.8,221.2,29.6"/>
<path class="st1" d="M221.3,28c-0.4-0.2-0.7-0.3-0.7,0c-0.1,0.2,0.2,0.5,0.6,0.8c0.4,0.2,0.8,0.2,0.8,0
	C222,28.4,221.7,28.2,221.3,28"/>
<path class="st1" d="M221.4,26.3c-0.4-0.2-0.6-0.3-0.7,0c0,0.2,0.3,0.4,0.6,0.6c0.4,0.2,0.7,0.3,0.7,0.1
	C222,26.8,221.7,26.5,221.4,26.3"/>
<path class="st1" d="M216.8,64.9c0.8,0.4,1.5,0.2,1.6-0.5c0.1-0.7-0.5-1.4-1.2-1.8c-0.8-0.3-1.5-0.1-1.6,0.5
	C215.5,63.7,216,64.6,216.8,64.9"/>
<path class="st1" d="M216.2,69.1c0.7,0.4,1.4,0.1,1.5-0.6c0-0.6-0.4-1.3-1.2-1.7c-0.7-0.4-1.4-0.1-1.5,0.5
	C214.9,67.9,215.4,68.7,216.2,69.1"/>
<path class="st1" d="M215.1,73.3c0.8,0.3,1.4,0.1,1.5-0.6c0.1-0.7-0.4-1.5-1.1-1.8c-0.7-0.4-1.4-0.1-1.5,0.6
	C213.9,72.2,214.4,73,215.1,73.3"/>
<path class="st1" d="M214.2,77.9c0.7,0.4,1.3,0.1,1.4-0.6c0.1-0.7-0.4-1.4-1.1-1.7c-0.6-0.3-1.2-0.1-1.4,0.6
	C213.1,76.9,213.5,77.6,214.2,77.9"/>
<path class="st1" d="M213.1,82.6c0.7,0.3,1.2,0,1.3-0.7c0.1-0.6-0.3-1.3-0.9-1.6c-0.6-0.3-1.2,0-1.3,0.7
	C212.1,81.5,212.5,82.3,213.1,82.6"/>
<path class="st1" d="M211.8,88.1c0.6,0.3,1.1,0,1.2-0.7c0.1-0.7-0.2-1.3-0.8-1.6c-0.6-0.2-1.2,0.1-1.3,0.7
	C210.8,87.2,211.2,87.8,211.8,88.1"/>
<path class="st1" d="M231,49.4c-0.9-0.5-1.6-0.3-1.6,0.3c-0.1,0.7,0.6,1.5,1.5,2c0.9,0.5,1.6,0.3,1.7-0.4
	C232.5,50.7,231.9,49.9,231,49.4"/>
<path class="st1" d="M230.8,55.2c-0.8-0.4-1.4-0.3-1.5,0.4c0,0.6,0.6,1.4,1.4,1.8c0.8,0.4,1.5,0.3,1.5-0.4
	C232.2,56.5,231.6,55.6,230.8,55.2"/>
<path class="st1" d="M230.7,58.2c-0.9-0.5-1.6-0.3-1.7,0.5c0,0.8,0.7,1.7,1.6,2.2c1,0.5,1.7,0.3,1.7-0.5
	C232.3,59.6,231.6,58.7,230.7,58.2"/>
<path class="st1" d="M230.3,69c-0.9-0.5-1.6-0.2-1.7,0.7c0,0.8,0.6,1.8,1.5,2.3c0.9,0.5,1.7,0.2,1.7-0.7
	C231.8,70.4,231.2,69.4,230.3,69"/>
<path class="st1" d="M245.1,54.6c-0.8-0.5-1.3-0.3-1.3,0.3c0.1,0.6,0.7,1.3,1.5,1.8c0.8,0.4,1.3,0.3,1.2-0.3
	C246.3,55.7,245.7,54.9,245.1,54.6"/>
<path class="st1" d="M234.3,85.3c-0.8-0.5-1.5-0.2-1.5,0.8c0,0.9,0.6,2,1.4,2.5c0.9,0.5,1.5,0.1,1.5-0.9
	C235.7,86.8,235,85.7,234.3,85.3"/>
<path class="st1" d="M238.8,93.4c-0.8-0.5-1.4-0.1-1.4,0.9c0,1,0.6,2.1,1.4,2.6c0.8,0.5,1.4,0.1,1.4-0.9
	C240.2,95,239.6,93.8,238.8,93.4"/>
<path class="st1" d="M229.8,77.6c-0.9-0.4-1.6-0.1-1.7,0.8c0,1,0.6,2.1,1.5,2.6c1,0.5,1.7,0.1,1.8-0.9
	C231.4,79.3,230.7,78.2,229.8,77.6"/>
<path class="st1" d="M225.7,71c-0.9-0.4-1.6-0.1-1.7,0.7c-0.1,0.9,0.5,1.9,1.4,2.4c1,0.4,1.7,0.1,1.8-0.8
	C227.2,72.4,226.6,71.4,225.7,71"/>
<path class="st1" d="M221.7,64.5c-1-0.5-1.8-0.2-2,0.6c-0.1,0.9,0.6,1.9,1.6,2.5c1,0.4,1.9,0.1,2-0.8C223.3,66,222.7,65,221.7,64.5"
	/>
<path class="st1" d="M230.4,65.3c-0.8-0.5-1.5-0.2-1.5,0.5c0,0.8,0.6,1.7,1.4,2.1c0.9,0.5,1.5,0.2,1.6-0.5
	C231.9,66.7,231.3,65.7,230.4,65.3"/>
<path class="st1" d="M227.7,42.6c-0.8-0.4-1.4-0.3-1.5,0.2c0,0.5,0.6,1.2,1.4,1.6c0.8,0.4,1.4,0.3,1.4-0.2
	C229,43.8,228.5,43,227.7,42.6"/>
<path class="st1" d="M241.6,52.8c-0.6-0.3-1.1-0.2-1,0.3c0,0.5,0.5,1,1.1,1.4c0.7,0.3,1.1,0.2,1.1-0.3
	C242.7,53.8,242.2,53.1,241.6,52.8"/>
<path class="st1" d="M234.8,60.7c-0.7-0.4-1.2-0.2-1.3,0.4c0,0.6,0.6,1.3,1.3,1.7c0.7,0.4,1.2,0.2,1.2-0.4
	C236,61.8,235.5,61,234.8,60.7"/>
<path class="st1" d="M234.6,75.6c-0.9-0.5-1.6-0.2-1.6,0.7c0,1,0.6,2,1.5,2.5c0.9,0.5,1.5,0.2,1.6-0.8
	C236,77.2,235.3,76.1,234.6,75.6"/>
<path class="st1" d="M230.6,61.8c-0.8-0.4-1.5-0.2-1.5,0.5c0,0.7,0.6,1.5,1.4,2c0.8,0.4,1.5,0.2,1.5-0.5
	C232,63.1,231.4,62.3,230.6,61.8"/>
<path class="st1" d="M238.8,66.3c-0.8-0.4-1.3-0.2-1.4,0.5c0.1,0.8,0.7,1.6,1.5,2.1c0.8,0.4,1.4,0.2,1.4-0.5
	C240.2,67.6,239.6,66.8,238.8,66.3"/>
<path class="st1" d="M242.1,102.5c-0.6-0.4-1.1-0.1-1.1,0.8c0,0.9,0.5,1.9,1.1,2.3c0.7,0.5,1.2,0.2,1.2-0.8
	C243.2,104,242.7,103,242.1,102.5"/>
<path class="st1" d="M238.5,56.4c-0.7-0.4-1.3-0.3-1.3,0.3c0.1,0.6,0.6,1.4,1.4,1.8c0.7,0.4,1.2,0.2,1.2-0.4
	C239.8,57.5,239.2,56.8,238.5,56.4"/>
<path class="st1" d="M224,40.9c-0.7-0.4-1.3-0.4-1.3,0.1c-0.1,0.5,0.5,1,1.2,1.4c0.7,0.4,1.3,0.3,1.3-0.1
	C225.2,41.9,224.7,41.2,224,40.9"/>
<path class="st1" d="M231.1,42.4c-0.7-0.4-1.2-0.3-1.2,0.1c0,0.5,0.5,1.1,1.2,1.4c0.7,0.3,1.2,0.3,1.2-0.2
	C232.3,43.3,231.8,42.6,231.1,42.4"/>
<path class="st1" d="M238.3,50.9c-0.6-0.3-1-0.2-1,0.2c0,0.5,0.5,1,1,1.3c0.6,0.3,1,0.2,1-0.2C239.3,51.8,238.8,51.2,238.3,50.9"/>
<path class="st1" d="M234.7,64.1c-0.7-0.4-1.3-0.2-1.3,0.5c0,0.6,0.6,1.4,1.3,1.8c0.7,0.4,1.3,0.2,1.3-0.5
	C235.9,65.3,235.3,64.5,234.7,64.1"/>
<path class="st1" d="M238.6,62.9c-0.6-0.4-1.1-0.2-1.1,0.4c0,0.5,0.5,1.1,1.1,1.5c0.7,0.4,1.1,0.2,1.1-0.4
	C239.7,63.9,239.2,63.2,238.6,62.9"/>
<path class="st1" d="M242.6,68.6c-0.7-0.4-1.2-0.2-1.2,0.5c0,0.7,0.6,1.5,1.3,1.9c0.7,0.4,1.2,0.2,1.2-0.5
	C243.8,69.8,243.2,69.1,242.6,68.6"/>
<path class="st1" d="M248.7,59.7c-0.5-0.4-0.9-0.3-0.9,0.2c0.1,0.5,0.5,1,1.1,1.3c0.5,0.4,0.9,0.3,0.8-0.2
	C249.6,60.6,249.2,60,248.7,59.7"/>
<path class="st1" d="M231.1,40.3c-0.6-0.3-1-0.3-1.1,0.1c0,0.4,0.5,1,1.1,1.2c0.6,0.3,1.1,0.3,1.1-0.1
	C232.2,41.1,231.7,40.6,231.1,40.3"/>
<path class="st1" d="M231.1,44.6c-0.6-0.4-1.1-0.3-1.2,0.1c0,0.5,0.5,1,1.2,1.3c0.6,0.4,1.1,0.3,1.1-0.1
	C232.2,45.5,231.7,44.9,231.1,44.6"/>
<path class="st1" d="M242.8,97c-0.7-0.5-1.3-0.2-1.3,0.8c0,1,0.6,2,1.3,2.5c0.8,0.6,1.3,0.2,1.3-0.8C244.1,98.5,243.5,97.5,242.8,97
	"/>
<path class="st1" d="M227.8,40.6c-0.6-0.3-1.1-0.3-1.2,0.1c0,0.4,0.5,1,1.1,1.2c0.6,0.3,1.1,0.3,1.1-0.1
	C228.9,41.5,228.4,40.9,227.8,40.6"/>
<path class="st1" d="M234.7,57.5c-0.6-0.3-1.1-0.2-1.1,0.3s0.5,1.1,1.1,1.4c0.6,0.4,1.1,0.2,1.1-0.3
	C235.7,58.5,235.2,57.8,234.7,57.5"/>
<path class="st1" d="M234.7,49.1c-0.5-0.3-0.9-0.2-0.9,0.2c0,0.3,0.4,0.9,0.9,1.1c0.5,0.2,0.9,0.2,0.9-0.2
	C235.5,49.9,235.1,49.4,234.7,49.1"/>
<path class="st1" d="M234.6,71.7c-0.6-0.3-1.1-0.1-1.1,0.5c0,0.6,0.5,1.2,1.1,1.6c0.6,0.3,1.1,0.1,1.1-0.5
	C235.6,72.8,235.1,72.1,234.6,71.7"/>
<path class="st1" d="M238.9,83.2c-0.7-0.4-1.3-0.2-1.3,0.6c0,0.9,0.6,1.7,1.3,2.2c0.7,0.4,1.2,0.1,1.2-0.7
	C240.1,84.5,239.6,83.6,238.9,83.2"/>
<path class="st1" d="M231,47.3c-0.4-0.3-0.8-0.2-0.8,0.1c0,0.4,0.3,0.8,0.8,1c0.5,0.2,0.8,0.2,0.9-0.2C231.9,48,231.5,47.5,231,47.3
	"/>
<path class="st1" d="M238.5,98.9c-0.6-0.4-1-0.1-1,0.6c0,0.8,0.4,1.6,1,1.9c0.5,0.4,1,0.1,1-0.6C239.5,100,239.1,99.2,238.5,98.9"/>
<path class="st1" d="M242,58.6c-0.6-0.3-1-0.2-1,0.3c0.1,0.5,0.5,1.1,1.1,1.4c0.6,0.4,1,0.3,1-0.3C243.1,59.5,242.6,58.9,242,58.6"
	/>
<path class="st1" d="M234.6,42.2c-0.5-0.3-0.9-0.2-0.9,0.1c0,0.4,0.4,0.9,1,1.1c0.5,0.3,0.9,0.2,0.9-0.1
	C235.5,42.9,235.1,42.5,234.6,42.2"/>
<path class="st1" d="M255.3,61.1c-0.4-0.3-0.7-0.2-0.6,0.2c0.1,0.4,0.4,0.9,0.9,1.1c0.4,0.3,0.7,0.2,0.6-0.2
	C256.1,61.9,255.8,61.4,255.3,61.1"/>
<path class="st1" d="M246.4,71.1c-0.6-0.4-1.1-0.2-1,0.4c0,0.7,0.5,1.4,1.1,1.8c0.6,0.4,1.1,0.2,1-0.4
	C247.5,72.2,247,71.4,246.4,71.1"/>
<path class="st1" d="M244.6,108.4c-0.5-0.4-0.9-0.1-0.9,0.7c0,0.9,0.4,1.8,1,2.2c0.5,0.5,0.8,0.2,0.8-0.7
	C245.5,109.9,245.1,108.9,244.6,108.4"/>
<path class="st1" d="M234.1,90.7c-0.6-0.4-1.1-0.1-1.1,0.7c0,0.7,0.4,1.5,1,1.8c0.7,0.4,1.2,0.1,1.2-0.6
	C235.1,91.8,234.7,91.1,234.1,90.7"/>
<path class="st1" d="M242.4,65.3c-0.4-0.3-0.8-0.2-0.7,0.2c0,0.5,0.3,1,0.8,1.2c0.4,0.2,0.7,0.1,0.7-0.3
	C243.2,66.1,242.8,65.5,242.4,65.3"/>
<path class="st1" d="M234.4,40.1c-0.4-0.2-0.8-0.2-0.8,0.1c0.1,0.3,0.4,0.7,0.9,1c0.4,0.2,0.8,0.2,0.8-0.1
	C235.1,40.7,234.8,40.4,234.4,40.1"/>
<path class="st1" d="M237.6,42c-0.4-0.2-0.7-0.2-0.7,0.1c0.1,0.2,0.4,0.6,0.7,0.8c0.4,0.2,0.7,0.2,0.7-0.1
	C238.2,42.5,237.9,42.2,237.6,42"/>
<path class="st1" d="M229.6,83.3c-0.6-0.3-1-0.1-1.1,0.5c0,0.6,0.4,1.2,1,1.5c0.5,0.3,1,0.1,1-0.5C230.5,84.2,230.1,83.6,229.6,83.3
	"/>
<path class="st1" d="M225.1,76c-0.5-0.3-1-0.1-1,0.4c-0.1,0.6,0.3,1.2,0.9,1.4c0.5,0.3,1,0.1,1-0.4C226.1,76.9,225.7,76.3,225.1,76"
	/>
<path class="st1" d="M221,69.2c-0.5-0.2-1-0.1-1,0.4c-0.1,0.5,0.3,1,0.8,1.3c0.6,0.3,1,0.1,1.1-0.4C221.9,70.1,221.6,69.5,221,69.2"
	/>
<path class="st1" d="M237.4,40c-0.4-0.2-0.7-0.2-0.7,0.1c0,0.3,0.3,0.6,0.7,0.8c0.4,0.2,0.7,0.3,0.7,0
	C238.1,40.5,237.8,40.3,237.4,40"/>
<path class="st1" d="M239.9,40.1c-0.3-0.2-0.6-0.2-0.6,0c0.1,0.3,0.3,0.6,0.7,0.8c0.3,0.2,0.6,0.2,0.6-0.1
	C240.4,40.5,240.2,40.3,239.9,40.1"/>
<path class="st1" d="M250.2,73.9c-0.4-0.3-0.6-0.2-0.6,0.2c0,0.5,0.4,1,0.8,1.2c0.3,0.3,0.6,0.1,0.6-0.3
	C250.9,74.7,250.6,74.1,250.2,73.9"/>
<path class="st1" d="M246.7,74.8c-0.5-0.3-0.9-0.1-0.9,0.4c0.1,0.6,0.5,1.1,1,1.5c0.5,0.3,0.8,0.1,0.8-0.4
	C247.6,75.7,247.2,75.2,246.7,74.8"/>
<path class="st1" d="M242.8,72.4c-0.5-0.2-0.8-0.1-0.8,0.4c0,0.5,0.4,1,0.8,1.3c0.5,0.2,0.8,0.1,0.8-0.4S243.2,72.7,242.8,72.4"/>
<path class="st1" d="M238.8,70.1c-0.4-0.2-0.8-0.1-0.8,0.3c0,0.5,0.4,1,0.8,1.1c0.4,0.3,0.8,0.2,0.8-0.3
	C239.5,70.9,239.2,70.4,238.8,70.1"/>
<path class="st1" d="M234.7,67.8c-0.4-0.2-0.8-0.1-0.8,0.3c0,0.4,0.4,0.9,0.8,1.1c0.4,0.2,0.8,0.1,0.8-0.3
	C235.4,68.6,235,68.1,234.7,67.8"/>
<path class="st1" d="M250.4,77.4c-0.3-0.3-0.6-0.2-0.6,0.3c0,0.5,0.4,1,0.8,1.2c0.4,0.3,0.6,0.2,0.6-0.3
	C251.1,78.2,250.8,77.7,250.4,77.4"/>
<path class="st1" d="M254.3,80.3c-0.3-0.3-0.6-0.2-0.6,0.3c0.1,0.4,0.4,0.9,0.7,1.1c0.4,0.3,0.6,0.1,0.6-0.3
	C254.9,81.1,254.6,80.5,254.3,80.3"/>
<path class="st1" d="M234.6,44.4c-0.5-0.2-0.8-0.2-0.8,0.1c0,0.4,0.4,0.8,0.8,1c0.4,0.2,0.8,0.2,0.8-0.1
	C235.2,45,234.9,44.6,234.6,44.4"/>
<path class="st1" d="M208.8,54.4c-1-0.5-2-0.2-2.2,0.6c-0.2,0.8,0.5,1.7,1.5,2.2c1.1,0.5,2,0.3,2.2-0.6
	C210.5,55.8,209.8,54.8,208.8,54.4"/>
<path class="st1" d="M204.4,52c-1.3-0.6-2.5-0.3-2.8,0.7c-0.3,1,0.5,2.2,1.8,2.8c1.4,0.6,2.5,0.3,2.8-0.7
	C206.5,53.8,205.7,52.6,204.4,52"/>
<path class="st1" d="M175.2,22c0.7,0.2,1,0.6,0.8,1c-0.3,0.3-1.1,0.4-1.8,0.2c-0.7-0.3-1-0.7-0.8-1C173.7,21.8,174.4,21.7,175.2,22"
	/>
<path class="st1" d="M180,23.4c0.8,0.3,1.2,0.9,1,1.2c-0.3,0.4-1.2,0.5-2.1,0.2c-0.8-0.4-1.3-0.9-1-1.2
	C178.2,23.2,179.1,23.1,180,23.4"/>
<path class="st1" d="M178.1,60.6c0.8,0.3,1.2,1,0.9,1.6c-0.3,0.6-1.2,0.9-2,0.6c-0.8-0.3-1.2-1-0.9-1.6
	C176.5,60.5,177.3,60.3,178.1,60.6"/>
<path class="st1" d="M185.1,57.1c1,0.5,1.6,1.4,1.3,2.2c-0.4,0.9-1.5,1.1-2.6,0.8c-1.1-0.5-1.7-1.4-1.3-2.2
	C182.9,57,184,56.8,185.1,57.1"/>
<path class="st1" d="M192,55.2c1.1,0.5,1.7,1.4,1.4,2.3c-0.3,0.9-1.5,1.2-2.6,0.8c-1.2-0.5-1.8-1.5-1.5-2.4
	C189.8,55,190.9,54.8,192,55.2"/>
<path class="st1" d="M205,33.7c1,0.5,1.6,1.2,1.4,1.7c-0.2,0.6-1.1,0.7-2,0.2c-1-0.4-1.6-1.2-1.4-1.7C203.2,33.3,204,33.2,205,33.7"
	/>
<path class="st1" d="M183,27.2c0.9,0.4,1.3,1,1.1,1.3c-0.3,0.5-1.2,0.6-2.1,0.3c-1-0.4-1.4-1-1.1-1.4C181.2,27,182.1,26.9,183,27.2"
	/>
<path class="st1" d="M187.4,28.9c0.9,0.3,1.4,1,1.2,1.4c-0.3,0.5-1.2,0.6-2.1,0.2c-1-0.4-1.5-1-1.2-1.4
	C185.7,28.6,186.5,28.5,187.4,28.9"/>
<path class="st1" d="M194.9,34.7c1,0.4,1.6,1.1,1.4,1.7c-0.3,0.6-1.3,0.8-2.3,0.3c-1-0.4-1.6-1.1-1.3-1.8
	C192.9,34.4,193.9,34.3,194.9,34.7"/>
<path class="st1" d="M191.8,30.5c0.9,0.4,1.5,1.1,1.2,1.6c-0.2,0.5-1.2,0.7-2.2,0.2c-1-0.4-1.6-1.1-1.3-1.6
	C189.9,30.2,190.9,30.2,191.8,30.5"/>
<path class="st1" d="M196.2,32.3c1,0.4,1.6,1.2,1.4,1.8c-0.3,0.6-1.3,0.7-2.4,0.2c-1-0.5-1.6-1.2-1.4-1.8
	C194.1,32,195.1,31.9,196.2,32.3"/>
<path class="st1" d="M199.2,36.4c1.1,0.6,1.7,1.3,1.5,2c-0.3,0.7-1.3,0.8-2.4,0.3c-1.1-0.5-1.8-1.3-1.5-2
	C197.1,36.2,198.1,36.1,199.2,36.4"/>
<path class="st1" d="M198.4,53.5c1.1,0.5,1.8,1.5,1.5,2.3c-0.3,0.9-1.3,1.1-2.5,0.7c-1.1-0.5-1.8-1.5-1.5-2.4
	C196.3,53.3,197.3,53,198.4,53.5"/>
<path class="st1" d="M199.6,50c1.2,0.6,1.9,1.6,1.6,2.5c-0.3,0.9-1.4,1.1-2.6,0.6c-1.2-0.5-1.9-1.5-1.6-2.5
	C197.2,49.8,198.4,49.5,199.6,50"/>
<path class="st1" d="M200.6,46.7c1.3,0.6,2,1.7,1.8,2.6c-0.3,0.9-1.6,1.1-2.9,0.6c-1.3-0.6-2.1-1.7-1.8-2.6
	C198.1,46.5,199.3,46.2,200.6,46.7"/>
<path class="st1" d="M201.6,43.7c1.2,0.6,2,1.6,1.8,2.4c-0.3,0.9-1.5,1-2.8,0.6c-1.3-0.6-2-1.7-1.7-2.5
	C199.2,43.3,200.4,43.1,201.6,43.7"/>
<path class="st1" d="M202.5,41c1.1,0.5,1.7,1.4,1.5,2.1c-0.2,0.7-1.2,0.9-2.3,0.4c-1.1-0.6-1.8-1.4-1.6-2.2
	C200.4,40.6,201.4,40.5,202.5,41"/>
<path class="st1" d="M203.4,38.4c1.2,0.5,1.9,1.4,1.7,2.2c-0.3,0.8-1.3,0.9-2.5,0.4c-1.2-0.6-1.9-1.6-1.6-2.3
	C201.2,37.9,202.3,37.8,203.4,38.4"/>
<path class="st1" d="M204.3,35.9c1.1,0.5,1.8,1.4,1.6,2.1c-0.2,0.7-1.3,0.9-2.4,0.3c-1.2-0.6-1.9-1.4-1.7-2.2
	C202.2,35.4,203.1,35.3,204.3,35.9"/>
<path class="st1" d="M213.1,35.3c0.8,0.4,1.3,1,1.2,1.4c-0.1,0.5-0.8,0.5-1.6,0.1c-0.7-0.4-1.2-1-1.1-1.4
	C211.8,35,212.5,34.9,213.1,35.3"/>
<path class="st1" d="M213.7,33.3c0.7,0.4,1.2,1,1.1,1.3c-0.1,0.4-0.7,0.4-1.4,0.1c-0.7-0.4-1.2-1-1.1-1.3
	C212.5,33,213.1,33,213.7,33.3"/>
<path class="st1" d="M214.3,31.5c0.6,0.3,1,0.8,0.9,1.1c0,0.3-0.6,0.3-1.2,0c-0.6-0.3-1-0.8-0.9-1.1
	C213.2,31.2,213.7,31.2,214.3,31.5"/>
<path class="st1" d="M214.8,29.7c0.6,0.3,1,0.7,0.9,1c-0.1,0.3-0.5,0.3-1.1,0c-0.5-0.3-0.9-0.7-0.8-1
	C213.8,29.4,214.3,29.4,214.8,29.7"/>
<path class="st1" d="M215.3,28.1c0.5,0.3,0.9,0.7,0.9,1c-0.1,0.3-0.5,0.3-1,0c-0.6-0.3-0.9-0.7-0.9-1
	C214.4,27.8,214.8,27.9,215.3,28.1"/>
<path class="st1" d="M215.8,26.5c0.5,0.3,0.8,0.6,0.7,0.9c0,0.2-0.4,0.2-0.9,0c-0.4-0.3-0.7-0.6-0.7-0.9
	C215,26.3,215.4,26.3,215.8,26.5"/>
<path class="st1" d="M216.2,25.3c0.4,0.2,0.7,0.5,0.7,0.7c-0.1,0.3-0.4,0.2-0.8,0c-0.4-0.2-0.7-0.5-0.7-0.8
	C215.5,25,215.8,25.1,216.2,25.3"/>
<path class="st1" d="M216.6,24c0.4,0.2,0.7,0.5,0.6,0.7c0,0.2-0.3,0.1-0.7-0.1c-0.3-0.2-0.6-0.4-0.6-0.6
	C216,23.8,216.3,23.8,216.6,24"/>
<path class="st1" d="M207.4,60.4c-0.8-0.4-1.3-1.1-1.2-1.7c0.2-0.7,0.9-0.9,1.7-0.5c0.8,0.4,1.3,1.1,1.2,1.7
	C208.8,60.6,208.1,60.8,207.4,60.4"/>
<path class="st1" d="M206.5,64.5c-0.7-0.4-1.2-1.1-1.1-1.7c0.2-0.7,0.9-0.9,1.7-0.6c0.7,0.4,1.2,1.1,1.1,1.7
	C208,64.6,207.3,64.8,206.5,64.5"/>
<path class="st1" d="M205.7,68.8c-0.8-0.4-1.2-1.1-1.1-1.8c0.2-0.6,0.9-0.9,1.7-0.5c0.7,0.3,1.2,1.1,1,1.7
	C207.2,68.9,206.5,69.1,205.7,68.8"/>
<path class="st1" d="M205,73.4c-0.8-0.4-1.2-1-1-1.7c0.2-0.7,0.8-0.9,1.5-0.6c0.7,0.3,1.1,1,1,1.6C206.3,73.4,205.7,73.7,205,73.4"
	/>
<path class="st1" d="M204,78.5c-0.7-0.3-1.1-1-0.9-1.6c0.2-0.7,0.8-1,1.4-0.7c0.7,0.3,1.1,1,1,1.6C205.3,78.5,204.6,78.8,204,78.5"
	/>
<path class="st1" d="M202.9,84.2c-0.6-0.3-0.9-1-0.8-1.6c0.2-0.6,0.8-0.9,1.4-0.6c0.6,0.3,1,1,0.8,1.5
	C204.2,84.2,203.6,84.5,202.9,84.2"/>
<path class="st1" d="M200.3,34.2c1,0.5,1.5,1.2,1.4,1.8c-0.3,0.6-1.2,0.7-2.2,0.3c-1-0.5-1.6-1.3-1.4-1.9
	C198.3,33.9,199.3,33.8,200.3,34.2"/>
<path class="st1" d="M198,39.2c0.9,0.5,1.5,1.1,1.3,1.7c-0.3,0.6-1.1,0.7-2,0.3c-0.9-0.4-1.5-1.1-1.3-1.7
	C196.4,39,197.1,38.8,198,39.2"/>
<path class="st1" d="M197.1,41.9c1,0.5,1.6,1.3,1.4,2c-0.3,0.7-1.2,0.9-2.3,0.4c-1.1-0.5-1.7-1.3-1.4-2
	C195.1,41.7,196.1,41.5,197.1,41.9"/>
<path class="st1" d="M193.3,51.5c1.1,0.5,1.6,1.3,1.4,2.1c-0.3,0.7-1.3,1-2.4,0.6c-1-0.5-1.6-1.4-1.3-2.1
	C191.4,51.3,192.3,51.1,193.3,51.5"/>
<path class="st1" d="M184.5,24.9c0.9,0.4,1.4,1,1.1,1.4c-0.3,0.5-1.3,0.6-2.2,0.2c-1-0.4-1.5-1-1.2-1.4
	C182.5,24.6,183.5,24.5,184.5,24.9"/>
<path class="st1" d="M183.2,61.7c1,0.4,1.5,1.3,1.2,2.1c-0.4,0.9-1.4,1.1-2.5,0.8c-1-0.4-1.5-1.3-1.1-2.1
	C181.1,61.6,182.2,61.3,183.2,61.7"/>
<path class="st1" d="M176.2,64.4c1,0.4,1.5,1.3,1.1,2.1c-0.4,0.9-1.5,1.2-2.5,0.9c-1.1-0.4-1.5-1.3-1.1-2.1
	C174.2,64.4,175.3,64,176.2,64.4"/>
<path class="st1" d="M190.4,59.4c1.1,0.5,1.6,1.4,1.4,2.2c-0.4,0.9-1.4,1.1-2.5,0.8c-1.1-0.5-1.7-1.4-1.3-2.3
	C188.3,59.3,189.4,59,190.4,59.4"/>
<path class="st1" d="M197.1,57.6c0.9,0.4,1.5,1.3,1.3,2.1c-0.3,0.8-1.3,1-2.3,0.7c-1-0.5-1.6-1.4-1.3-2.2
	C195.2,57.4,196.2,57.1,197.1,57.6"/>
<path class="st1" d="M203.2,55.7c1.1,0.5,1.7,1.4,1.5,2.3c-0.2,0.8-1.2,1-2.3,0.7c-1.1-0.6-1.7-1.5-1.5-2.3
	C201.3,55.5,202.3,55.3,203.2,55.7"/>
<path class="st1" d="M194.6,48.2c1,0.4,1.5,1.1,1.3,1.8c-0.3,0.7-1.2,0.9-2.2,0.5c-0.9-0.4-1.5-1.2-1.2-1.9
	C192.7,48,193.7,47.8,194.6,48.2"/>
<path class="st1" d="M205.7,31.6c0.8,0.4,1.4,1,1.2,1.5c-0.1,0.5-0.9,0.5-1.7,0.1c-0.9-0.4-1.4-1-1.3-1.5
	C204.1,31.2,204.9,31.2,205.7,31.6"/>
<path class="st1" d="M188.8,26.8c0.7,0.4,1.1,0.9,0.9,1.2c-0.2,0.4-0.9,0.5-1.7,0.1c-0.8-0.3-1.2-0.8-1-1.1
	C187.3,26.6,188,26.5,188.8,26.8"/>
<path class="st1" d="M192.4,40.3c0.9,0.3,1.3,1,1.1,1.4c-0.2,0.6-1,0.7-1.9,0.4c-0.8-0.4-1.3-1-1-1.5
	C190.9,40.1,191.7,39.9,192.4,40.3"/>
<path class="st1" d="M186.7,53.1c1,0.5,1.6,1.3,1.3,2.1c-0.4,0.8-1.4,1-2.5,0.7c-1.1-0.5-1.6-1.3-1.3-2.1
	C184.7,53,185.7,52.8,186.7,53.1"/>
<path class="st1" d="M195.8,45.1c0.9,0.4,1.5,1.1,1.2,1.8c-0.2,0.6-1.1,0.8-2,0.4c-1-0.4-1.5-1.1-1.3-1.8
	C194,44.9,194.9,44.7,195.8,45.1"/>
<path class="st1" d="M186.3,41.2c1,0.4,1.5,1,1.2,1.7c-0.3,0.6-1.3,0.8-2.2,0.4c-1-0.4-1.5-1.1-1.2-1.7
	C184.5,41,185.5,40.8,186.3,41.2"/>
<path class="st1" d="M170.2,67.3c0.7,0.2,1,0.9,0.7,1.4c-0.3,0.6-1.2,0.9-1.9,0.7c-0.7-0.3-1-1-0.7-1.5
	C168.8,67.3,169.6,67.1,170.2,67.3"/>
<path class="st1" d="M190.5,33c0.9,0.3,1.3,1,1.1,1.4c-0.2,0.5-1.1,0.6-2,0.3c-0.9-0.4-1.4-1-1.1-1.5
	C188.7,32.7,189.6,32.6,190.5,33"/>
<path class="st1" d="M209.5,33.5c0.7,0.4,1.2,1,1.1,1.4c-0.1,0.4-0.8,0.5-1.5,0.1c-0.8-0.4-1.3-1-1.2-1.4
	C208.1,33.2,208.7,33.2,209.5,33.5"/>
<path class="st1" d="M198.8,26.4c0.6,0.3,1,0.7,0.9,1c-0.1,0.3-0.6,0.3-1.2,0.1c-0.5-0.2-0.9-0.6-0.8-0.9
	C197.8,26.3,198.3,26.2,198.8,26.4"/>
<path class="st1" d="M192.8,28.5c0.7,0.3,1.1,0.8,0.9,1c-0.2,0.4-0.8,0.4-1.5,0.2c-0.7-0.3-1.1-0.8-0.9-1.1
	C191.6,28.2,192.2,28.2,192.8,28.5"/>
<path class="st1" d="M191.1,43.3c0.9,0.3,1.3,1,1.1,1.5c-0.2,0.6-1.1,0.8-1.9,0.4c-0.9-0.4-1.4-1-1.1-1.6
	C189.4,43.1,190.3,42.9,191.1,43.3"/>
<path class="st1" d="M187.8,38.4c0.8,0.3,1.2,0.9,1,1.3c-0.3,0.5-1,0.6-1.8,0.3c-0.8-0.3-1.2-0.9-0.9-1.3
	C186.3,38.4,187.1,38.2,187.8,38.4"/>
<path class="st1" d="M181.4,39.5c0.9,0.4,1.4,1,1.1,1.5c-0.3,0.5-1.3,0.7-2.2,0.4c-0.9-0.4-1.3-1-1-1.5
	C179.7,39.4,180.6,39.2,181.4,39.5"/>
<path class="st1" d="M178.5,25.9c0.7,0.2,1,0.7,0.8,1c-0.3,0.4-1,0.5-1.7,0.3c-0.7-0.3-1.1-0.8-0.9-1
	C177,25.7,177.7,25.6,178.5,25.9"/>
<path class="st1" d="M199.8,24.6c0.6,0.3,1,0.7,0.9,1c-0.1,0.3-0.6,0.4-1.2,0.1c-0.6-0.2-1.1-0.6-1-1
	C198.6,24.4,199.2,24.4,199.8,24.6"/>
<path class="st1" d="M201.9,29.9c0.8,0.4,1.3,1,1.1,1.3c-0.1,0.4-0.8,0.5-1.6,0.1c-0.8-0.4-1.2-1-1.1-1.3
	C200.5,29.6,201.2,29.6,201.9,29.9"/>
<path class="st1" d="M202.7,27.9c0.7,0.4,1.1,0.9,1,1.2c-0.1,0.3-0.7,0.4-1.4,0c-0.7-0.3-1.1-0.8-1-1.1
	C201.6,27.6,202.2,27.6,202.7,27.9"/>
<path class="st1" d="M193.6,37.7c0.7,0.3,1.1,0.9,0.9,1.2c-0.2,0.5-0.9,0.6-1.6,0.3c-0.7-0.4-1.1-0.9-0.9-1.3
	C192.2,37.5,192.9,37.4,193.6,37.7"/>
<path class="st1" d="M197.1,30.4c0.6,0.2,0.9,0.7,0.8,1c-0.2,0.4-0.7,0.4-1.3,0.1c-0.6-0.2-1-0.7-0.8-1
	C195.9,30.2,196.5,30.2,197.1,30.4"/>
<path class="st1" d="M188.2,49.8c0.7,0.3,1.1,1,0.9,1.4c-0.2,0.6-0.9,0.7-1.7,0.4c-0.7-0.3-1.1-0.9-0.9-1.4
	C186.7,49.7,187.5,49.5,188.2,49.8"/>
<path class="st1" d="M201,32.3c0.5,0.3,0.8,0.7,0.7,1c-0.1,0.3-0.6,0.3-1.1,0.1c-0.6-0.3-0.9-0.7-0.8-1
	C199.9,32.1,200.4,32.1,201,32.3"/>
<path class="st1" d="M206.3,29.7c0.6,0.3,1,0.8,0.9,1.1c-0.1,0.3-0.6,0.3-1.2,0c-0.6-0.3-1-0.8-0.9-1
	C205.2,29.5,205.7,29.4,206.3,29.7"/>
<path class="st1" d="M185.9,31.4c0.8,0.2,1.2,0.8,1,1.1c-0.3,0.4-1,0.5-1.8,0.2c-0.7-0.3-1.1-0.8-0.9-1.1
	C184.5,31.2,185.2,31.1,185.9,31.4"/>
<path class="st1" d="M170.3,20.4c0.6,0.2,0.8,0.5,0.6,0.8c-0.2,0.2-0.9,0.3-1.5,0.1c-0.6-0.2-0.9-0.5-0.6-0.8
	C169.1,20.3,169.8,20.2,170.3,20.4"/>
<path class="st1" d="M176.4,37.8c0.8,0.3,1.2,0.9,0.9,1.3c-0.3,0.5-1.2,0.7-2,0.4c-0.9-0.3-1.3-0.9-1-1.3
	C174.7,37.7,175.5,37.6,176.4,37.8"/>
<path class="st1" d="M168.5,71.7c0.7,0.2,0.9,0.9,0.6,1.4c-0.3,0.6-1.1,0.9-1.7,0.6c-0.7-0.2-1-0.9-0.6-1.4
	C167.1,71.7,167.9,71.4,168.5,71.7"/>
<path class="st1" d="M163.4,74.3c0.6,0.2,0.8,0.7,0.5,1.1c-0.3,0.6-0.9,0.8-1.5,0.6c-0.6-0.2-0.9-0.7-0.6-1.2
	C162.1,74.3,162.8,74.1,163.4,74.3"/>
<path class="st1" d="M181.4,66.1c0.7,0.3,1.1,1,0.8,1.6c-0.3,0.7-1.1,1-1.8,0.7c-0.8-0.3-1.2-1-0.9-1.7
	C179.9,66.1,180.7,65.8,181.4,66.1"/>
<path class="st1" d="M174.5,69c0.7,0.3,1.1,1,0.8,1.6c-0.3,0.7-1.1,1-1.8,0.7c-0.8-0.3-1.2-1.1-0.9-1.7
	C172.9,69,173.7,68.7,174.5,69"/>
<path class="st1" d="M183,36.8c0.6,0.2,0.8,0.7,0.7,1c-0.2,0.3-0.8,0.4-1.4,0.2c-0.5-0.2-0.8-0.6-0.6-1
	C181.8,36.7,182.4,36.6,183,36.8"/>
<path class="st1" d="M197.3,21.9c0.4,0.2,0.8,0.5,0.7,0.8c-0.1,0.2-0.5,0.2-1,0.1c-0.5-0.2-0.8-0.5-0.7-0.8
	C196.5,21.7,196.9,21.7,197.3,21.9"/>
<path class="st1" d="M188.7,63.8c0.7,0.3,1,1,0.8,1.4c-0.2,0.6-0.8,0.8-1.5,0.5c-0.6-0.2-1-0.9-0.8-1.4
	C187.4,63.8,188.1,63.6,188.7,63.8"/>
<path class="st1" d="M195.6,61.6c0.6,0.3,1,0.9,0.8,1.3c-0.2,0.5-0.8,0.7-1.4,0.4c-0.6-0.2-0.9-0.9-0.8-1.3
	C194.4,61.5,195,61.3,195.6,61.6"/>
<path class="st1" d="M202,60.2c0.6,0.3,0.9,0.9,0.8,1.3c-0.2,0.4-0.7,0.6-1.3,0.4c-0.6-0.3-0.9-0.9-0.8-1.3
	C200.9,60.1,201.4,60,202,60.2"/>
<path class="st1" d="M170.9,36.4c0.5,0.2,0.8,0.5,0.6,0.9c-0.2,0.3-0.8,0.4-1.4,0.2c-0.5-0.1-0.8-0.5-0.6-0.8
	C169.8,36.4,170.3,36.3,170.9,36.4"/>
<path class="st1" d="M174.6,40.3c0.6,0.3,1,0.8,0.7,1.1c-0.2,0.4-1,0.5-1.6,0.3c-0.7-0.2-1.1-0.7-0.8-1
	C173.1,40.3,173.9,40.1,174.6,40.3"/>
<path class="st1" d="M179.7,42.5c0.6,0.2,0.9,0.7,0.7,1.1c-0.2,0.3-0.8,0.5-1.4,0.2c-0.6-0.2-0.9-0.6-0.7-1
	C178.5,42.5,179.1,42.4,179.7,42.5"/>
<path class="st1" d="M184.8,44.5c0.5,0.3,0.8,0.7,0.7,1c-0.2,0.4-0.8,0.5-1.3,0.3c-0.5-0.2-0.8-0.6-0.6-1
	C183.7,44.4,184.3,44.3,184.8,44.5"/>
<path class="st1" d="M189.7,46.5c0.5,0.3,0.8,0.7,0.6,1.1c-0.1,0.3-0.7,0.4-1.2,0.2c-0.5-0.2-0.8-0.7-0.6-1
	C188.6,46.4,189.2,46.3,189.7,46.5"/>
<path class="st1" d="M200.7,23.1c0.4,0.2,0.7,0.5,0.7,0.8c-0.1,0.2-0.5,0.2-1,0.1c-0.4-0.2-0.7-0.5-0.7-0.8
	C199.8,23,200.2,23,200.7,23.1"/>
<path class="st1" d="M198.2,20.4c0.4,0.2,0.7,0.4,0.6,0.7c0,0.2-0.4,0.2-0.8,0c-0.4-0.1-0.7-0.4-0.6-0.6
	C197.4,20.2,197.8,20.2,198.2,20.4"/>
<path class="st1" d="M195.7,18c0.4,0.2,0.7,0.4,0.6,0.6c0,0.2-0.4,0.3-0.7,0.1c-0.4-0.1-0.7-0.4-0.6-0.6
	C195,17.9,195.4,17.9,195.7,18"/>
<path class="st1" d="M203.4,26.2c0.5,0.3,0.8,0.7,0.7,1c-0.1,0.2-0.5,0.2-1,0c-0.5-0.3-0.8-0.6-0.7-0.9
	C202.5,26.1,202.9,26.1,203.4,26.2"/>
<path class="st1" d="M169.2,38.7c0.5,0.2,0.8,0.6,0.6,1c-0.2,0.3-0.8,0.4-1.4,0.3c-0.6-0.2-0.9-0.6-0.7-1
	C168,38.7,168.6,38.6,169.2,38.7"/>
<path class="st1" d="M164.1,37.5c0.6,0.1,0.8,0.4,0.6,0.7c-0.2,0.4-0.8,0.5-1.4,0.4c-0.5-0.2-0.7-0.5-0.5-0.8
	C163,37.5,163.6,37.3,164.1,37.5"/>
<path class="st1" d="M210.5,38.2c0.5,0.2,0.8,0.6,0.8,0.9c-0.1,0.3-0.6,0.4-1.1,0.2c-0.4-0.3-0.8-0.7-0.7-1
	C209.6,38,210,37.9,210.5,38.2 M214.5,40.2c0.4,0.2,0.7,0.6,0.7,0.9c-0.1,0.3-0.5,0.3-0.9,0.1c-0.4-0.3-0.7-0.6-0.7-0.9
	C213.7,40,214.1,40,214.5,40.2 M218.3,42c0.4,0.2,0.7,0.6,0.6,0.9c0,0.3-0.4,0.3-0.8,0.1c-0.4-0.2-0.7-0.6-0.7-0.9
	C217.5,41.8,217.8,41.8,218.3,42 M221.9,43.8c0.4,0.2,0.8,0.7,0.7,1c0,0.3-0.4,0.4-0.9,0.1c-0.4-0.2-0.8-0.7-0.7-1
	C221,43.6,221.4,43.5,221.9,43.8 M209.8,40.7c0.5,0.3,0.8,0.6,0.7,0.9c-0.1,0.4-0.5,0.4-0.9,0.2c-0.5-0.3-0.8-0.6-0.7-1
	C209,40.5,209.4,40.5,209.8,40.7 M221.7,46.6c0.4,0.3,0.7,0.7,0.7,1c-0.1,0.3-0.4,0.4-0.9,0.1c-0.4-0.2-0.7-0.6-0.7-0.9
	C220.9,46.5,221.2,46.4,221.7,46.6 M209.2,43.4c0.4,0.2,0.7,0.6,0.7,0.9c-0.1,0.4-0.5,0.4-1,0.2c-0.5-0.2-0.8-0.7-0.7-1
	C208.3,43.2,208.7,43.1,209.2,43.4 M221.3,49.3c0.5,0.3,0.8,0.7,0.8,1c-0.1,0.3-0.4,0.4-0.9,0.2c-0.5-0.2-0.8-0.7-0.7-1
	C220.5,49.2,220.9,49.1,221.3,49.3 M208.4,46.2c0.5,0.3,0.8,0.7,0.7,1c0,0.4-0.5,0.5-1,0.2c-0.5-0.2-0.8-0.7-0.7-1
	C207.6,46.1,208,46,208.4,46.2 M221,52.3c0.4,0.2,0.8,0.7,0.7,1c0,0.4-0.4,0.5-0.9,0.3c-0.4-0.3-0.8-0.8-0.7-1
	C220.1,52.1,220.5,52.1,221,52.3 M208.5,50.1c-0.1,0.4-0.6,0.5-1.1,0.3c-0.6-0.3-0.9-0.8-0.9-1.1c0.2-0.4,0.7-0.5,1.2-0.3
	C208.3,49.2,208.6,49.7,208.5,50.1 M212.3,51.1c0.5,0.3,0.8,0.7,0.7,1c-0.1,0.4-0.5,0.5-1,0.2c-0.5-0.2-0.8-0.7-0.7-1
	C211.4,51,211.8,50.9,212.3,51.1 M216.4,53.1c0.5,0.3,0.8,0.7,0.7,1c0,0.4-0.4,0.5-0.9,0.2c-0.5-0.2-0.8-0.7-0.8-1
	C215.5,53,215.9,52.9,216.4,53.1 M220.4,55c0.6,0.3,0.9,0.8,0.9,1.2c-0.1,0.4-0.5,0.5-1,0.2c-0.6-0.2-0.9-0.8-0.9-1.1
	C219.5,54.9,219.9,54.8,220.4,55 M206.8,35.7c-0.1,0.6,0.4,1.2,1.2,1.8c-1-0.3-1.9-0.2-2.1,0.5c-0.1,0.6,0.3,1.3,1,1.9
	c-0.9-0.2-1.6,0.1-1.8,0.7c-0.2,0.7,0.4,1.5,1.4,2.2c-1.1-0.3-2-0.1-2.3,0.7c-0.1,0.6,0.2,1.3,0.9,2c-0.8-0.1-1.5,0.2-1.7,0.8
	c-0.2,0.8,0.2,1.6,1.1,2.3c-1-0.2-1.9,0.1-2.1,0.9c-0.3,1,0.6,2.3,2,3c1.2,0.5,2.2,0.4,2.7-0.2c0.1,0.9,0.9,1.8,2,2.4
	c1,0.5,1.9,0.4,2.5,0c0.3,0.8,1,1.5,1.9,2c1,0.5,1.9,0.5,2.4,0c0.3,0.9,1,1.6,2,2.1c1,0.5,1.8,0.4,2.3,0c0.3,0.8,1.1,1.6,2,2.1
	c1.4,0.7,2.5,0.3,2.6-0.8c0-0.8-0.5-1.7-1.3-2.4c0.9,0.1,1.5-0.2,1.6-1c0.1-0.8-0.4-1.5-1.1-2.2c0.8,0.1,1.3-0.2,1.4-0.9
	c0-0.8-0.6-1.7-1.6-2.4c1,0.3,1.7,0,1.8-0.7c0.1-0.7-0.4-1.4-1.1-2.1c0.7,0.2,1.3-0.1,1.3-0.7c0.1-0.7-0.6-1.6-1.5-2.2
	c0.9,0.3,1.5,0.1,1.6-0.5c0-0.7-0.7-1.6-1.8-2.1c-0.9-0.5-1.6-0.5-1.9,0c-0.1-0.7-0.8-1.3-1.7-1.8c-0.8-0.5-1.6-0.5-1.9-0.1
	c-0.2-0.7-0.9-1.4-1.8-1.9c-1-0.5-1.9-0.5-2.3-0.1c-0.1-0.6-0.7-1.2-1.6-1.7c-1.1-0.5-2-0.5-2.2,0.2c0.1-0.7-0.6-1.5-1.7-2
	C208,34.9,207,35,206.8,35.7"/>
</svg>
